<svg width="24" height="24" viewBox="0 0 24 24" fill="none" xmlns="http://www.w3.org/2000/svg">
<path d="M5 12H7V14H5V12ZM8 12H10V14H8V12ZM11 12H13V14H11V12ZM14 12H16V14H14V12ZM5 15H7V17H5V15ZM8 15H10V17H8V15ZM11 15H13V17H11V15ZM14 15H16V17H14V15ZM5 18H7V20H5V18ZM8 18H10V20H8V18ZM11 18H13V20H11V18ZM17 12H19V14H17V12ZM17 15H19V17H17V15Z" fill="white"/>
<path d="M20 2H19V1C19 0.4 18.6 0 18 0C17.4 0 17 0.4 17 1V2H7V1C7 0.4 6.6 0 6 0C5.4 0 5 0.4 5 1V2H4C2.3 2 1 3.3 1 5V21C1 22.7 2.3 24 4 24H20C21.7 24 23 22.7 23 21V5C23 3.3 21.7 2 20 2ZM21 21C21 21.6 20.6 22 20 22H4C3.4 22 3 21.6 3 21V10H21V21ZM21 8H3V5C3 4.4 3.4 4 4 4H5V5C5 5.6 5.4 6 6 6C6.6 6 7 5.6 7 5V4H17V5C17 5.6 17.4 6 18 6C18.6 6 19 5.6 19 5V4H20C20.6 4 21 4.4 21 5V8Z" fill="white"/>
</svg>
