<svg width="18" height="12" viewBox="0 0 18 12" fill="none" xmlns="http://www.w3.org/2000/svg">
<g clip-path="url(#clip0_1_167)">
<path d="M5 3.5H6V4.5H5V3.5ZM5 7.5H6V8.5H5V7.5ZM5 5.5H6V6.5H5V5.5Z" fill="white"/>
<path d="M14.1162 2.67676L14.8233 3.38388L8.81279 9.39418L8.1057 8.68706L14.1162 2.67676Z" fill="white"/>
<path d="M9.5 2.5C8.7 2.5 8 3.2 8 4C8 4.8 8.7 5.5 9.5 5.5C10.3 5.5 11 4.8 11 4C11 3.2 10.3 2.5 9.5 2.5ZM9.5 4.5C9.2 4.5 9 4.3 9 4C9 3.7 9.2 3.5 9.5 3.5C9.8 3.5 10 3.7 10 4C10 4.3 9.8 4.5 9.5 4.5ZM13.5 6.5C12.7 6.5 12 7.2 12 8C12 8.8 12.7 9.5 13.5 9.5C14.3 9.5 15 8.8 15 8C15 7.2 14.3 6.5 13.5 6.5ZM13.5 8.5C13.2 8.5 13 8.3 13 8C13 7.7 13.2 7.5 13.5 7.5C13.8 7.5 14 7.7 14 8C14 8.3 13.8 8.5 13.5 8.5Z" fill="white"/>
<path d="M17 0.5H1C0.4 0.5 0 0.9 0 1.5V10.5C0 11.1 0.4 11.5 1 11.5H17C17.6 11.5 18 11.1 18 10.5V1.5C18 0.9 17.6 0.5 17 0.5ZM17 10.5H6V9.5H5V10.5H1V1.5H5V2.5H6V1.5H17V10.5Z" fill="white"/>
</g>
<defs>
<clipPath id="clip0_1_167">
<rect width="18" height="11" fill="white" transform="translate(0 0.5)"/>
</clipPath>
</defs>
</svg>
